<?xml version="1.0" standalone="no"?>
<!DOCTYPE svg PUBLIC "-//W3C//DTD SVG 20010904//EN"
 "http://www.w3.org/TR/2001/REC-SVG-20010904/DTD/svg10.dtd">
<svg version="1.0" xmlns="http://www.w3.org/2000/svg"
 width="512.000000pt" height="512.000000pt" viewBox="0 0 512.000000 512.000000"
 preserveAspectRatio="xMidYMid meet">
<metadata>
Created by potrace 1.11, written by Peter Selinger 2001-2013
</metadata>
<g transform="translate(0.000000,512.000000) scale(0.100000,-0.100000)"
fill="#000000" stroke="none">
<path d="M965 4474 c-135 -24 -324 -102 -447 -185 -193 -131 -348 -323 -433
-535 -60 -151 -78 -245 -79 -424 -1 -230 28 -362 121 -545 75 -147 206 -303
343 -406 192 -145 450 -229 701 -229 l109 0 0 -115 0 -115 -228 0 c-164 0
-231 -3 -240 -12 -9 -9 -12 -85 -12 -280 0 -330 11 -308 -150 -308 -150 0
-150 0 -150 158 0 78 -4 122 -12 130 -16 16 -160 16 -176 0 -8 -8 -12 -52 -12
-134 l0 -121 67 -112 c108 -178 216 -315 378 -477 134 -135 224 -214 323 -283
l32 -22 0 150 0 151 -71 0 c-65 0 -73 2 -100 29 -36 37 -40 94 -8 135 l20 26
-141 0 -142 0 -29 29 c-41 41 -41 101 0 142 l29 29 671 0 671 0 0 105 0 105
100 0 100 0 0 -105 0 -105 500 0 500 0 0 105 0 105 215 0 c208 0 215 -1 215
-20 0 -17 -7 -20 -53 -20 -29 0 -58 -5 -65 -12 -7 -7 -12 -42 -12 -85 l0 -73
481 0 481 0 29 -29 c41 -41 41 -101 0 -142 l-29 -29 -142 0 -141 0 20 -26 c32
-41 28 -98 -8 -135 -27 -27 -35 -29 -100 -29 l-71 0 0 -150 0 -151 46 32 c205
140 493 444 638 672 l37 57 -101 0 c-152 0 -140 -35 -140 408 0 273 -3 371
-12 380 -17 17 -259 17 -276 0 -9 -9 -12 -96 -12 -330 0 -305 -1 -319 -20
-338 -18 -18 -33 -20 -180 -20 l-160 0 0 415 0 415 109 0 c187 0 362 41 526
123 115 57 188 109 289 207 221 213 335 464 352 780 12 200 -27 386 -120 575
-138 281 -352 470 -666 590 -167 64 -189 65 -1039 65 l-766 0 53 -31 c28 -17
52 -36 52 -43 0 -7 -27 -28 -60 -45 -61 -33 -82 -55 -119 -128 -12 -24 -27
-43 -34 -43 -7 0 -29 29 -48 66 -31 56 -45 70 -99 102 -35 20 -65 42 -67 49
-3 7 18 24 46 38 28 14 51 28 51 30 0 3 -282 5 -627 4 -493 -1 -645 -4 -708
-15z m2108 -279 c21 -60 43 -115 50 -121 7 -7 57 -26 112 -44 167 -54 166 -75
-6 -135 l-114 -40 -40 -115 c-36 -105 -42 -115 -66 -118 -26 -3 -28 1 -66 115
l-39 118 -114 40 c-170 60 -171 81 -9 134 53 17 103 37 111 44 9 7 30 57 48
112 37 114 45 127 74 123 17 -2 28 -24 59 -113z m-2085 -499 c75 -20 140 -61
148 -93 10 -39 -7 -75 -42 -89 -27 -11 -37 -10 -85 13 -171 83 -353 -24 -353
-207 0 -198 217 -308 364 -185 48 40 76 44 114 14 84 -66 -53 -203 -218 -216
-156 -13 -305 77 -379 227 -29 59 -32 73 -32 160 0 87 3 101 32 160 86 176
270 264 451 216z m661 -1 c16 -8 32 -22 36 -32 65 -163 245 -650 245 -665 0
-27 -44 -68 -73 -68 -39 0 -72 34 -92 94 l-19 56 -141 0 -141 0 -19 -56 c-28
-83 -81 -115 -132 -79 -45 31 -40 53 83 375 63 168 122 319 130 336 24 51 72
66 123 39z m818 -15 c26 -11 62 -32 80 -46 55 -42 43 -118 -23 -138 -13 -4
-40 4 -76 23 -70 37 -117 46 -163 31 -40 -13 -61 -49 -46 -79 5 -9 63 -38 128
-64 177 -70 234 -129 234 -242 0 -140 -136 -248 -292 -232 -128 14 -259 96
-259 163 0 79 68 98 145 40 83 -64 200 -70 240 -13 40 58 10 90 -145 152 -147
59 -188 97 -205 188 -17 92 54 200 152 231 62 21 167 14 230 -14z m417 9 l26
-20 0 -349 0 -349 -26 -20 c-43 -34 -86 -26 -109 20 -22 42 -22 657 0 699 23
45 66 53 109 19z m327 2 c14 -10 90 -113 169 -229 l145 -210 5 210 c5 206 5
210 29 229 32 26 67 24 96 -6 l25 -24 2 -268 c4 -417 5 -399 -22 -428 -24 -26
-67 -33 -98 -16 -10 5 -83 103 -162 219 l-145 209 -5 -196 c-3 -108 -9 -203
-13 -213 -5 -9 -22 -22 -39 -29 -26 -10 -35 -10 -57 2 -50 28 -51 39 -49 392
l3 329 28 24 c34 29 56 30 88 5z m1117 5 c110 -30 201 -106 254 -214 30 -61
33 -74 33 -162 0 -88 -3 -101 -33 -160 -55 -111 -132 -177 -244 -211 -84 -26
-162 -22 -254 12 -82 31 -181 130 -214 214 -32 83 -33 206 -1 287 24 63 100
153 157 189 88 54 203 71 302 45z m-698 -1641 l0 -95 -565 0 -565 0 0 43 c0
24 -5 48 -12 55 -17 17 -259 17 -276 0 -7 -7 -12 -31 -12 -55 l0 -43 -355 0
-355 0 0 95 0 95 1070 0 1070 0 0 -95z m-1830 -395 l0 -100 -155 0 -155 0 0
100 0 100 155 0 155 0 0 -100z m400 0 l0 -100 -100 0 -100 0 0 100 0 100 100
0 100 0 0 -100z m1430 0 l0 -100 -565 0 -565 0 0 100 0 100 565 0 565 0 0
-100z m-1830 -350 c0 -83 -13 -90 -175 -90 l-135 0 0 70 0 70 155 0 155 0 0
-50z m1000 0 c0 -80 -16 -90 -150 -90 -134 0 -150 10 -150 90 l0 50 150 0 150
0 0 -50z"/>
<path d="M1570 3353 c-18 -48 -35 -94 -37 -100 -4 -10 14 -13 71 -13 42 0 76
2 76 4 0 8 -60 168 -68 183 -6 9 -19 -15 -42 -74z"/>
<path d="M4170 3551 c-112 -36 -174 -118 -174 -231 0 -138 95 -233 234 -234
137 -1 234 96 234 234 0 95 -44 169 -128 212 -43 22 -128 32 -166 19z"/>
<path d="M1801 464 c-19 -24 -21 -40 -21 -185 l0 -158 58 -16 c468 -137 991
-138 1430 -5 l72 22 0 158 c0 144 -2 160 -21 184 l-20 26 -739 0 -739 0 -20
-26z"/>
</g>
</svg>
